<svg xmlns="http://www.w3.org/2000/svg" viewBox="0 0 27 20" width="27" height="20">
	<style>
		tspan { white-space:pre }
		.shp0 { fill: #494949 }
	</style>
	<path id="Email" class="shp0" d="M23.75 1.5L4.21 1.5C2.96 1.5 1.95 2.56 1.95 3.85L1.95 16.65C1.95 17.94 2.96 19 4.21 19L23.75 19C24.99 19 26 17.94 26 16.65L26 3.85C26 2.56 24.99 1.5 23.75 1.5ZM23.38 3.07L13.98 10.13L4.58 3.07L23.38 3.07ZM23.75 17.43L4.21 17.43C3.79 17.43 3.46 17.08 3.46 16.65L3.46 4.16L13.54 11.74C13.67 11.83 13.82 11.88 13.98 11.88C14.13 11.88 14.28 11.83 14.42 11.74L24.5 4.16L24.5 16.65C24.5 17.08 24.16 17.43 23.75 17.43Z" />
</svg>
