<svg xmlns="http://www.w3.org/2000/svg" viewBox="0 0 22 22" width="22" height="22">
	<style>
		tspan { white-space:pre }
		.shp0 { fill: #494949 }
	</style>
	<path id="Linkedin" class="shp0" d="M20.43 12.68L20.43 20.05L16.46 20.05L16.46 13.17C16.46 11.44 15.89 10.27 14.45 10.27C13.36 10.27 12.7 11.06 12.42 11.83C12.31 12.1 12.29 12.49 12.29 12.87L12.29 20.05L8.32 20.05C8.32 20.05 8.37 8.4 8.32 7.2L12.29 7.2L12.29 9.02C12.28 9.03 12.27 9.05 12.26 9.06L12.29 9.06L12.29 9.02C12.81 8.14 13.75 6.89 15.86 6.89C18.47 6.89 20.43 8.73 20.43 12.68ZM4.17 1C2.81 1 1.93 1.96 1.93 3.22C1.93 4.45 2.79 5.44 4.12 5.44L4.15 5.44C5.53 5.44 6.39 4.45 6.39 3.22C6.36 1.96 5.53 1 4.17 1ZM2.16 20.05L6.13 20.05L6.13 7.2L2.16 7.2L2.16 20.05Z" />
</svg>
