<svg xmlns="http://www.w3.org/2000/svg" viewBox="0 0 21 19" width="21" height="19">
	<style>
		tspan { white-space:pre }
		.shp0 { fill: #494949 }
	</style>
	<path id="Twitter" class="shp0" d="M19.5 3.61C18.82 3.92 18.09 4.13 17.32 4.22C18.11 3.74 18.71 2.99 18.99 2.09C18.26 2.53 17.45 2.85 16.58 3.02C15.89 2.28 14.9 1.81 13.81 1.81C11.72 1.81 10.02 3.53 10.02 5.66C10.02 5.96 10.05 6.25 10.12 6.53C6.96 6.37 4.17 4.84 2.29 2.51C1.97 3.08 1.78 3.74 1.78 4.45C1.78 5.78 2.45 6.96 3.47 7.65C2.85 7.63 2.26 7.46 1.75 7.17C1.75 7.18 1.75 7.2 1.75 7.22C1.75 9.08 3.06 10.64 4.79 10.99C4.48 11.08 4.14 11.12 3.79 11.12C3.55 11.12 3.31 11.1 3.08 11.05C3.56 12.58 4.96 13.7 6.62 13.73C5.33 14.76 3.69 15.37 1.91 15.37C1.61 15.37 1.3 15.36 1.01 15.32C2.69 16.41 4.68 17.05 6.82 17.05C13.8 17.05 17.62 11.19 17.62 6.1C17.62 5.94 17.62 5.77 17.61 5.6C18.35 5.06 19 4.38 19.5 3.61Z" />
</svg>
